/* XPM */
static char *_ca0fb116a44434aa4ab59ae06969852BU3lLAceGtqUVfnY[] = {
/* columns rows colors chars-per-pixel */
"30 30 117 2 ",
"   c None",
".  c #FE8C23",
"X  c #FF9227",
"o  c #FD962A",
"O  c #FD972A",
"+  c #FE972B",
"@  c #FE982A",
"#  c #FE992B",
"$  c #FD9A2C",
"%  c #FD9B2D",
"&  c #FE9D2E",
"*  c #FD9F30",
"=  c #FFA02F",
"-  c #FDA32F",
";  c #FDA030",
":  c #FDA131",
">  c #FEA030",
",  c #FFA030",
"<  c #FDA231",
"1  c #FFA332",
"2  c #FCA530",
"3  c #FDA530",
"4  c #FEA433",
"5  c #FFA433",
"6  c #FEA533",
"7  c #FDA732",
"8  c #FEA734",
"9  c #FEA735",
"0  c #FCA833",
"q  c #FDA934",
"w  c #FEA835",
"e  c #FEA936",
"r  c #FEAB36",
"t  c #FEAA37",
"y  c #FEAB37",
"u  c #FDAD37",
"i  c #FAAF3B",
"p  c #FBAF3B",
"a  c #FDAF39",
"s  c #FEAE39",
"d  c #FFAE39",
"f  c #FEAF39",
"g  c #FDAF3A",
"h  c #FEAE3A",
"j  c #FFAF3A",
"k  c #FFAF3D",
"l  c #FCB03B",
"z  c #FDB03B",
"x  c #FDB13B",
"c  c #FFB13B",
"v  c #F9B03C",
"b  c #FDB13C",
"n  c #FFB13C",
"m  c #FDB23C",
"M  c #FDB33D",
"N  c #FEB23C",
"B  c #FFB23C",
"V  c #FFB33C",
"C  c #FEB33D",
"Z  c #FFB33D",
"A  c #FDB53F",
"S  c #FFB43E",
"D  c #FEB53F",
"F  c #FDB740",
"G  c #FEB842",
"H  c #FFB842",
"J  c #FFB942",
"K  c #FEB943",
"L  c #FEBA43",
"P  c #FFBA43",
"I  c #FEBB44",
"U  c #FFBB44",
"Y  c #FFBD46",
"T  c #FFBE47",
"R  c #FFBF47",
"E  c #FEBF48",
"W  c #FFBF48",
"Q  c #FEC049",
"!  c #FFC049",
"~  c #FEC149",
"^  c #FFC14A",
"/  c #FFC14B",
"(  c #FFC24A",
")  c #FFC24B",
"_  c #FFC34B",
"`  c #FEC34C",
"'  c #FBC64F",
"]  c #FEC44C",
"[  c #FFC44C",
"{  c #FEC54D",
"}  c #FFC54D",
"|  c #FEC64E",
" . c #FEC74F",
".. c #FFC74F",
"X. c #FEC84F",
"o. c #FFC84F",
"O. c #FBC750",
"+. c #FCC750",
"@. c #FFC850",
"#. c #FFC951",
"$. c #FFCA51",
"%. c #FDC952",
"&. c #FDCA52",
"*. c #FFCA52",
"=. c #FECB52",
"-. c #FFCB52",
";. c #FECB53",
":. c #FFCB53",
">. c #FECC53",
",. c #FFCC53",
"<. c #FECC54",
"1. c #FFCC54",
"2. c #FFCD54",
"3. c #FFCD55",
"4. c #FFCE55",
"5. c #FFCF55",
"6. c #FFCF56",
/* pixels */
"                                                            ",
"                                                            ",
"                                                            ",
"                                                            ",
"              O.;.4.4.                                      ",
"        ' ;.>.4.>.>.4.4.                                    ",
"    +.;.4.4.4.;.b a ] 4.4.                                  ",
"  v Q 4.4.4.4.4.] I ] 4.4.4.                                ",
"  p b Q 4.4.4.4.] z b E 4.4.4.                              ",
"  p b b Q 4.4.4.] b a a ] 4.4.4.                            ",
"  z b b A Q Q ] 4.;.] ] 4.4.4.X.a                           ",
"  z b b b , . X k 4.4.4.4.4.4.;.H A                         ",
"  z b b b & + + + Q 4.4.4.4.4.4.4.;.;.                      ",
"  z b b b 9 % % * ` 4.4.4.4.4.;.4.4.4.4.                    ",
"  z b b b z 9 4 a X.4.4.4.4.4.A H 4.4.4.4.                  ",
"  z b b b b b b b H ;.4.4.4.4.] ] 4.4.4.4.4.                ",
"  z b b b b b a e a H ;.4.4.4.4.4.;.] 4.4.4.4.              ",
"  z 4 e b b b = + , z H ;.4.4.4.4.E e b ;.4.4.4.            ",
"  z 4 e b b b # + , z b I >.4.4.4.;.Q H ;.;.;.4.4.          ",
"  z b b b b b 4 # e b b b T 4.4.4.4.4.4.F 4 0 F ;.4.        ",
"  b b b b b b b a b b a e z T 4.4.4.4.4.z 4 4 = u ;.4.      ",
"        b b b b b b b , % e b E 4.4.4.4.;.H b z e Q 4.4.    ",
"              b b b b , + , z b Q 4.4.4.4.>.] T Q ;.4.4.4.  ",
"                    b a , e b b b Q 4.4.4.4.4.4.4.4.4.      ",
"                            b b b b Q 4.4.4.4.4.4.          ",
"                                  b A ] 4.4.4.              ",
"                                                            ",
"                                                            ",
"                                                            ",
"                                                            "
};
