/* XPM */
static char *fa50a9827be045d2fd052cd308c1e56cri7usIyDpDy8krSi[] = {
/* columns rows colors chars-per-pixel */
"30 30 160 2 ",
"   c None",
".  c black",
"X  c #0C0C0C",
"o  c #151515",
"O  c #282828",
"+  c gray21",
"@  c #4B4B4B",
"#  c gray31",
"$  c #505050",
"%  c #5A5A5A",
"&  c gray38",
"*  c #676767",
"=  c DimGray",
"-  c #6A6A6A",
";  c #6C6C6C",
":  c gray43",
">  c gray45",
",  c gray46",
"<  c #797979",
"1  c #7B7B7B",
"2  c #7C7C7C",
"3  c #7E7E7E",
"4  c #808080",
"5  c #818181",
"6  c #868686",
"7  c gray53",
"8  c #888888",
"9  c #898989",
"0  c gray54",
"q  c #8B8B8B",
"w  c gray55",
"e  c #8D8D8D",
"r  c #8E8E8E",
"t  c gray56",
"y  c #909090",
"u  c gray57",
"i  c #929292",
"p  c #939393",
"a  c #959394",
"s  c gray58",
"d  c #959595",
"f  c gray59",
"g  c #979797",
"h  c #989898",
"j  c #989998",
"k  c gray60",
"l  c #9A999A",
"z  c #999A9A",
"x  c #9A9A9A",
"c  c #9B9B9B",
"v  c gray61",
"b  c #9D9C9C",
"n  c #9E9C9C",
"m  c #9E9C9D",
"M  c #9E9D9D",
"N  c #9F9D9D",
"B  c gray62",
"V  c #A0979A",
"C  c #A3979C",
"Z  c #A09D9E",
"A  c #A29E9F",
"S  c #A39EA0",
"D  c #A59FA1",
"F  c #A0A0A0",
"G  c #A0A1A1",
"H  c gray64",
"J  c #A3A4A4",
"K  c #A5A5A5",
"L  c #A8A1A4",
"P  c #A9A2A4",
"I  c #AAA2A5",
"U  c #ABA3A6",
"Y  c #ACA3A6",
"T  c #ADA3A7",
"R  c #A8A6A7",
"E  c #ACA4A7",
"W  c #ADA4A7",
"Q  c #AEA4A8",
"!  c gray66",
"~  c #A9A9A9",
"^  c #AAABAA",
"/  c #AFADAE",
"(  c #B0A5A9",
")  c #B1A6AA",
"_  c #B2A6AB",
"`  c #B7A8AD",
"'  c #B7A9AE",
"]  c #B8A9AE",
"[  c #B9AAAF",
"{  c #BAAAB0",
"}  c #BBABB1",
"|  c #BCABB1",
" . c gray70",
".. c gray71",
"X. c #B7B6B6",
"o. c gray72",
"O. c #B9B9B9",
"+. c #BBBBBB",
"@. c #BBBCBC",
"#. c #BCBCBC",
"$. c gray",
"%. c #C1AEB4",
"&. c #C2AEB5",
"*. c #C3AFB6",
"=. c #C8B1B9",
"-. c #CAB2BB",
";. c #CBB2BB",
":. c #CBB3BC",
">. c #CCB3BC",
",. c #CEB4BD",
"<. c #CEB4BE",
"1. c #D2B6C0",
"2. c #D3B7C1",
"3. c #D7B9C4",
"4. c #D8B9C5",
"5. c #D9BAC5",
"6. c #DCBBC7",
"7. c #DDBCC8",
"8. c #DFBDC9",
"9. c #C3C3C3",
"0. c #C3C4C4",
"q. c gray77",
"w. c #C8C8C8",
"e. c gray79",
"r. c #CACACA",
"t. c #CBCBCB",
"y. c gray80",
"u. c #CECECE",
"i. c gray81",
"p. c #D0D0D0",
"a. c gray82",
"s. c #D2D2D2",
"d. c gray83",
"f. c #D5D5D5",
"g. c #D7D7D7",
"h. c #E5C0CD",
"j. c #E6C0CE",
"k. c #E7C1CE",
"l. c #E7C1CF",
"z. c #E8C1CF",
"x. c #E8C2D0",
"c. c #E9C2D0",
"v. c #EAC2D1",
"b. c #ECC4D3",
"n. c #EEC5D4",
"m. c #EFC5D4",
"M. c #F1C6D6",
"N. c #F2C6D6",
"B. c #F3C7D7",
"V. c #F4C7D7",
"C. c #F4C7D8",
"Z. c #F4C8D8",
"A. c #F5C8D8",
"S. c gray88",
"D. c #E1E1E1",
"F. c #E6E6E6",
"G. c #E7E7E7",
"H. c gray91",
"J. c #E9E9E9",
"K. c #ECECEC",
/* pixels */
"                                                            ",
"                                                            ",
"                                                            ",
"                m                         m                 ",
"            ' 1.4.>.Q               m [ 1.4.:.E             ",
"          %.n.A.A.A.j._             %.n.A.A.A.j._           ",
"        U z.C.N.N.N.A.4.Z         Y c.C.N.N.N.A.3.m         ",
"        { N.N.N.N.N.V.c.U         | N.N.N.N.N.V.j.U         ",
"        [ N.N.N.N.N.N.6.S k k k k _ c.C.N.N.N.C.j.U         ",
"        U j.A.N.N.N.,.Z k k k k k k Y 7.V.N.N.A.1.m         ",
"          { c.A.N.=.m J H k k k m K H D 7.A.V.7.Y           ",
"            _ =.=.R d.S.d.q.m K p.d.S.0.E ,.%.U             ",
"                k p.i.@ m e.#.e., - #.H.O.k                 ",
"                H K.; . ; < p.O.X + < O.d.k                 ",
"              k m F.t . . % i.9.O . o e.i.k                 ",
"              k k #.H.k 7 e.^ @.O.2 X.F.^ k                 ",
"              k k k  .p.e./ ' _ X.p.e.^ k k                 ",
"                k p p k k Y b.7.m k d p d k                 ",
"                  d t 0 t a C V p t 0 p k                   ",
"                    k d t 0 7 0 0 p d                       ",
"                        0 0 0 0 0         #                 ",
"                        p k k k k 0                         ",
"                      - 0 k k k k 2     #                   ",
"                      - 7 k k k k < & $                     ",
"                    - > 7 t d p t 5 ; *                     ",
"                    5 d k d t t k k p                       ",
"                      k k k d k k k k                       ",
"                                                            ",
"                                                            ",
"                                                            "
};
